<svg width="128" height="128" viewBox="0 0 128 128" fill="none" xmlns="http://www.w3.org/2000/svg">
<path d="M12.9126 119V98.7H29.2976V102.441H17.5816V106.617H23.2076C25.663 106.617 27.5286 107.129 28.8046 108.154C30.1 109.179 30.7476 110.667 30.7476 112.62C30.7476 114.631 30.0323 116.197 28.6016 117.318C27.171 118.439 25.1506 119 22.5406 119H12.9126ZM17.5816 115.52H22.2796C23.4783 115.52 24.3966 115.288 25.0346 114.824C25.6726 114.341 25.9916 113.645 25.9916 112.736C25.9916 110.957 24.7543 110.068 22.2796 110.068H17.5816V115.52ZM34.3228 119V98.7H49.6638V102.47H38.9918V115.23H50.0408V119H34.3228ZM38.6438 110.532V106.878H48.4168V110.532H38.6438ZM58.2145 119V101.455L59.2875 102.528H51.7475V98.7H69.3505V102.528H61.8105L62.8545 101.455V119H58.2145ZM81.7321 119.348C80.1275 119.348 78.6388 119.087 77.2661 118.565C75.9128 118.043 74.7335 117.308 73.7281 116.361C72.7421 115.414 71.9688 114.302 71.4081 113.026C70.8668 111.75 70.5961 110.358 70.5961 108.85C70.5961 107.342 70.8668 105.95 71.4081 104.674C71.9688 103.398 72.7518 102.286 73.7571 101.339C74.7625 100.392 75.9418 99.657 77.2951 99.135C78.6485 98.613 80.1178 98.352 81.7031 98.352C83.3078 98.352 84.7771 98.613 86.1111 99.135C87.4645 99.657 88.6341 100.392 89.6201 101.339C90.6255 102.286 91.4085 103.398 91.9691 104.674C92.5298 105.931 92.8101 107.323 92.8101 108.85C92.8101 110.358 92.5298 111.76 91.9691 113.055C91.4085 114.331 90.6255 115.443 89.6201 116.39C88.6341 117.318 87.4645 118.043 86.1111 118.565C84.7771 119.087 83.3175 119.348 81.7321 119.348ZM81.7031 115.346C82.6118 115.346 83.4431 115.191 84.1971 114.882C84.9705 114.573 85.6471 114.128 86.2271 113.548C86.8071 112.968 87.2518 112.282 87.5611 111.489C87.8898 110.696 88.0541 109.817 88.0541 108.85C88.0541 107.883 87.8898 107.004 87.5611 106.211C87.2518 105.418 86.8071 104.732 86.2271 104.152C85.6665 103.572 84.9995 103.127 84.2261 102.818C83.4528 102.509 82.6118 102.354 81.7031 102.354C80.7945 102.354 79.9535 102.509 79.1801 102.818C78.4261 103.127 77.7591 103.572 77.1791 104.152C76.5991 104.732 76.1448 105.418 75.8161 106.211C75.5068 107.004 75.3521 107.883 75.3521 108.85C75.3521 109.797 75.5068 110.677 75.8161 111.489C76.1448 112.282 76.5895 112.968 77.1501 113.548C77.7301 114.128 78.4068 114.573 79.1801 114.882C79.9535 115.191 80.7945 115.346 81.7031 115.346ZM110.349 119V98.7H115.047V119H110.349ZM96.4293 119V98.7H101.127V119H96.4293ZM100.779 110.677V106.704H110.697V110.677H100.779Z" fill="#1B3764"/>
<path d="M104 47.9706C103.971 42.5502 102.911 37.189 100.881 32.1943C98.8505 27.1994 95.8898 22.6695 92.1689 18.8637C88.4479 15.0578 84.0393 12.051 79.1961 10.0154C74.3527 7.97991 69.1699 6.95569 63.9442 7.00147C58.7279 6.97097 53.5571 8.00649 48.7266 10.0489C43.8962 12.0913 39.5008 15.1006 35.7917 18.9049C32.0825 22.7092 29.1321 27.234 27.1089 32.2212C25.0857 37.2083 24.0293 42.56 24.0001 47.9706C23.9912 53.5908 25.1128 59.1511 27.2931 64.2962L41.6558 34.8286L29.8047 69.2173C29.9349 69.4489 30.0652 69.7189 30.214 69.9505C31.5535 67.2682 46.2139 37.3952 46.2139 37.3952L33.3024 74.3311L33.7303 74.8908C34.9396 72.4012 50.1396 40.7916 50.1396 40.7916L37.4698 78.6344C37.6158 78.7922 37.7712 78.9405 37.9349 79.0783L53.6371 43.4934L41.9909 82.2624C48.4427 86.6034 55.9566 88.9408 63.647 88.9989C71.337 89.057 78.883 86.8336 85.3952 82.5904L74.7348 43.9952L89.4326 79.6379L89.9906 79.1748L78.2325 41.3127L93.6559 75.4503L94.1582 74.8521L82.3442 37.9935L97.4325 70.4136C97.5813 70.182 97.693 69.9699 97.8231 69.7382L86.9581 35.562L100.409 64.8945C102.769 59.5876 103.994 53.8145 104 47.9706ZM64.2976 64.2577L65.2093 66.8243C65.2093 66.8243 64.8372 65.9753 64.1861 64.5472L63.0698 66.8243L64 64.219C59.6278 54.5703 44.1861 20.2783 42.2885 16.1872L46.3257 13.7364L64.2418 63.9103L82.1024 13.8521L86.1396 16.3801L64.2976 64.2577Z" fill="#1B3764"/>
</svg>
