<svg width="50" height="50" viewBox="0 0 50 50" fill="none" xmlns="http://www.w3.org/2000/svg">
<path d="M13.6307 30.7701H36.3688C36.5241 30.7701 36.678 30.7395 36.8215 30.6801C36.965 30.6207 37.0955 30.5335 37.2053 30.4237C37.3152 30.3138 37.4023 30.1834 37.4618 30.0399C37.5212 29.8963 37.5518 29.7425 37.5518 29.5871V1.78152C37.5518 1.62616 37.5212 1.47232 37.4618 1.32878C37.4023 1.18524 37.3152 1.05482 37.2053 0.944962C37.0955 0.835106 36.9651 0.747969 36.8215 0.68853C36.678 0.62909 36.5241 0.598512 36.3688 0.598541H13.6307C13.4754 0.598512 13.3215 0.62909 13.178 0.68853C13.0345 0.747969 12.904 0.835106 12.7942 0.944962C12.6843 1.05482 12.5972 1.18524 12.5377 1.32878C12.4783 1.47232 12.4477 1.62616 12.4478 1.78152V29.5871C12.4477 29.7425 12.4783 29.8963 12.5377 30.0399C12.5972 30.1834 12.6843 30.3138 12.7942 30.4237C12.904 30.5335 13.0345 30.6207 13.178 30.6801C13.3215 30.7395 13.4754 30.7701 13.6307 30.7701ZM14.8148 2.96339H35.1847V28.4052H14.8148V2.96339Z" fill="#1B3764"/>
<path d="M22.7055 10.0926C22.809 10.6251 23.0946 11.105 23.5132 11.4501C23.9318 11.7951 24.4574 11.9838 24.9999 11.9838C25.5424 11.9838 26.068 11.7951 26.4866 11.4501C26.9052 11.105 27.1908 10.6251 27.2944 10.0926L27.6512 8.2534C27.6985 7.90527 27.6708 7.55104 27.5699 7.2145C27.469 6.87796 27.2973 6.56691 27.0662 6.30225C26.8352 6.03759 26.5501 5.82544 26.2303 5.68006C25.9104 5.53468 25.5632 5.45944 25.2118 5.45938H24.788C24.4367 5.45944 24.0894 5.53468 23.7696 5.68006C23.4497 5.82544 23.1647 6.03759 22.9336 6.30225C22.7025 6.5669 22.5308 6.87795 22.4299 7.21448C22.329 7.55102 22.3013 7.90525 22.3486 8.25338L22.7055 10.0926Z" fill="#1B3764"/>
<path d="M30.3284 14.0924C30.3037 13.9763 30.2497 13.8684 30.1715 13.7791C30.0932 13.6898 29.9934 13.6221 29.8815 13.5824L27.3904 12.6977L25 15.088L22.6096 12.6977L20.1184 13.5824C20.0065 13.6221 19.9067 13.6898 19.8285 13.7791C19.7502 13.8684 19.6962 13.9763 19.6715 14.0924L18.8204 18.0979H31.1795L30.3284 14.0924Z" fill="#1B3764"/>
<path d="M32.0964 22.4264C32.0961 22.2276 32.017 22.037 31.8764 21.8964C31.7358 21.7558 31.5452 21.6767 31.3464 21.6764H18.6528C18.4538 21.6764 18.2631 21.7554 18.1224 21.8961C17.9817 22.0367 17.9027 22.2275 17.9027 22.4264C17.9027 22.6254 17.9817 22.8161 18.1224 22.9568C18.2631 23.0975 18.4538 23.1765 18.6528 23.1765H31.3464C31.5452 23.1762 31.7358 23.0971 31.8764 22.9565C32.017 22.8159 32.0961 22.6253 32.0964 22.4264Z" fill="#1B3764"/>
<path d="M44.1448 9.40498H39.7739V13.5554H43.3096C43.3385 13.6035 43.3531 13.6588 43.3517 13.7149V36.5083H6.64826V13.7149C6.64667 13.6591 6.66047 13.6039 6.68814 13.5554H10.226V9.405H5.85517C4.99911 9.4059 4.17837 9.74637 3.57305 10.3517C2.96772 10.957 2.62725 11.7778 2.62634 12.6338V39.0725C2.62757 39.9282 2.96825 40.7484 3.5736 41.3531C4.17895 41.9579 4.99952 42.2977 5.85517 42.298H18.097L15.967 47.7367C15.8945 47.9216 15.8683 48.1215 15.8906 48.3189C15.913 48.5164 15.9832 48.7053 16.0952 48.8694C16.2072 49.0335 16.3576 49.1678 16.5334 49.2605C16.7091 49.3532 16.9048 49.4016 17.1035 49.4015H32.8167C33.0142 49.4015 33.2088 49.3535 33.3837 49.2617C33.5586 49.1699 33.7086 49.0371 33.8208 48.8745C33.933 48.712 34.0041 48.5246 34.0279 48.3285C34.0518 48.1325 34.0276 47.9335 33.9576 47.7488L31.8918 42.2981H44.1448C45.0004 42.2975 45.8208 41.9576 46.4261 41.3529C47.0314 40.7483 47.3722 39.9282 47.3736 39.0726V12.6338C47.3725 11.7778 47.032 10.9572 46.4267 10.3519C45.8214 9.74661 45.0008 9.40608 44.1448 9.40498Z" fill="#2D3E50"/>
</svg>
