<?xml version="1.0" encoding="UTF-8" standalone="no"?> <svg width="512" height="512" viewBox="0 0 512 512" fill="none" xmlns="http://www.w3.org/2000/svg">
<path d="M488 129.146H462.191L447.854 100.472C447.236 99.2361 446.309 98.1812 445.163 97.4102C444.016 96.6391 442.69 96.1781 441.312 96.072L336.663 88.022C335.218 87.9144 333.77 88.1984 332.472 88.844L219.772 145.192C218.661 145.748 217.695 146.554 216.95 147.548L180.727 195.848C179.836 197.037 179.293 198.45 179.159 199.93C179.026 201.41 179.307 202.897 179.972 204.226L189.849 223.981L178.342 235.488C177.599 236.231 177.01 237.113 176.608 238.084C176.206 239.055 176 240.095 176 241.146V273.146H160V195.146C159.994 190.374 158.096 185.799 154.722 182.424C151.347 179.05 146.772 177.152 142 177.146H69.542C66.4873 177.137 63.481 177.909 60.8092 179.39C58.1374 180.871 55.889 183.011 54.278 185.606C54.278 185.606 16 247.647 16 249.146V329.146C16 331.268 16.8429 333.303 18.3431 334.803C19.8434 336.303 21.8783 337.146 24 337.146H73.013C74.7844 344.018 78.7898 350.106 84.3991 354.453C90.0085 358.799 96.9036 361.158 104 361.158C111.096 361.158 117.992 358.799 123.601 354.453C129.21 350.106 133.216 344.018 134.987 337.146H177.013C178.784 344.018 182.79 350.106 188.399 354.453C194.008 358.799 200.904 361.158 208 361.158C215.096 361.158 221.992 358.799 227.601 354.453C233.21 350.106 237.216 344.018 238.987 337.146H289.013C290.784 344.018 294.79 350.106 300.399 354.453C306.008 358.799 312.904 361.158 320 361.158C327.096 361.158 333.992 358.799 339.601 354.453C345.21 350.106 349.216 344.018 350.987 337.146H369.013C370.784 344.018 374.79 350.106 380.399 354.453C386.008 358.799 392.904 361.158 400 361.158C407.096 361.158 413.992 358.799 419.601 354.453C425.21 350.106 429.216 344.018 430.987 337.146H472C474.122 337.146 476.157 336.303 477.657 334.803C479.157 333.303 480 331.268 480 329.146V281.146C480 279.024 479.157 276.989 477.657 275.489C476.157 273.989 474.122 273.146 472 273.146H440V243.568L441.344 245.584C442.075 246.68 443.064 247.578 444.225 248.199C445.387 248.821 446.683 249.146 448 249.146H472C474.122 249.146 476.157 248.303 477.657 246.803C479.157 245.303 480 243.268 480 241.146V163.568L494.656 141.584C495.459 140.379 495.921 138.979 495.991 137.533C496.06 136.086 495.737 134.648 495.053 133.371C494.37 132.095 493.353 131.027 492.111 130.283C490.869 129.539 489.448 129.146 488 129.146V129.146ZM460.618 145.146H473.052C473.052 145.146 464 159.567 464 161.146V169.146H445.345L460.618 145.146ZM400 297.146C392.908 297.155 386.019 299.516 380.411 303.859C374.804 308.202 370.796 314.281 369.013 321.146H350.987C349.216 314.274 345.21 308.186 339.601 303.839C333.992 299.493 327.096 297.134 320 297.134C312.904 297.134 306.008 299.493 300.399 303.839C294.79 308.186 290.784 314.274 289.013 321.146H276.884L292.719 289.146H427.056L443.056 321.146H430.987C429.204 314.281 425.196 308.202 419.589 303.859C413.981 299.516 407.092 297.155 400 297.146ZM392.344 237.794L392.063 273.146H321.64L392.344 237.794ZM424 202.689V225.146H409.708L424 202.689ZM408.319 241.146H424V249.146H408.255L408.319 241.146ZM408.064 273.146L408.128 265.146H424V273.146H408.064ZM447.617 135.775L423.825 173.163L391.384 108.28L435.568 111.68L447.617 135.775ZM337.646 104.146L372.832 106.853C372.931 107.117 373.043 107.376 373.169 107.628L413.418 188.128C413.548 188.375 413.69 188.615 413.845 188.848L394.889 218.636L349.023 241.568L288.767 128.585L337.646 104.146ZM196.494 201.493L228.618 158.659L274.452 135.743L334.708 248.724L285.862 273.146H232.321L196.494 201.493ZM192 244.46L197.393 239.067L214.433 273.146H192V244.46ZM144 321.146H134.987C133.216 314.274 129.21 308.186 123.601 303.839C117.992 299.493 111.096 297.134 104 297.134C96.9036 297.134 90.0085 299.493 84.3991 303.839C78.7898 308.186 74.7844 314.274 73.013 321.146H64V299.813L84 273.146H144V321.146ZM69.542 193.146H142C142.53 193.146 143.039 193.357 143.414 193.732C143.789 194.107 144 194.616 144 195.146V225.146H48.434C48.434 225.146 68.849 193.146 69.542 193.146V193.146ZM38.522 241C39.002 241.09 144 241.142 144 241.142V257.142H80C78.758 257.142 77.5331 257.431 76.4223 257.987C75.3115 258.542 74.3452 259.348 73.6 260.342L52 289.146H32V251.44L38.522 241ZM32 305.146H48V321.146H32V305.146ZM104 345.146C100.835 345.146 97.7421 344.208 95.1109 342.45C92.4797 340.691 90.4289 338.193 89.2179 335.269C88.0069 332.345 87.6901 329.128 88.3074 326.025C88.9248 322.921 90.4487 320.07 92.6863 317.832C94.9239 315.595 97.7749 314.071 100.879 313.453C103.982 312.836 107.199 313.153 110.123 314.364C113.047 315.575 115.545 317.626 117.304 320.257C119.062 322.888 120 325.981 120 329.146C119.995 333.388 118.308 337.455 115.308 340.454C112.309 343.454 108.242 345.141 104 345.146ZM160 289.146H274.867L259.033 321.146H238.987C237.216 314.274 233.21 308.186 227.601 303.839C221.992 299.493 215.096 297.134 208 297.134C200.904 297.134 194.008 299.493 188.399 303.839C182.79 308.186 178.784 314.274 177.013 321.146H160V289.146ZM208 345.146C204.835 345.146 201.742 344.208 199.111 342.45C196.48 340.691 194.429 338.193 193.218 335.269C192.007 332.345 191.69 329.128 192.307 326.025C192.925 322.921 194.449 320.07 196.686 317.832C198.924 315.595 201.775 314.071 204.879 313.453C207.982 312.836 211.199 313.153 214.123 314.364C217.047 315.575 219.545 317.626 221.304 320.257C223.062 322.888 224 325.981 224 329.146C223.995 333.388 222.308 337.455 219.308 340.454C216.309 343.454 212.242 345.141 208 345.146ZM320 345.146C316.835 345.146 313.742 344.208 311.111 342.45C308.48 340.691 306.429 338.193 305.218 335.269C304.007 332.345 303.69 329.128 304.307 326.025C304.925 322.921 306.449 320.07 308.686 317.832C310.924 315.595 313.775 314.071 316.879 313.453C319.982 312.836 323.199 313.153 326.123 314.364C329.047 315.575 331.545 317.626 333.304 320.257C335.062 322.888 336 325.981 336 329.146C335.995 333.388 334.308 337.455 331.308 340.454C328.309 343.454 324.242 345.141 320 345.146ZM400 345.146C396.835 345.146 393.742 344.208 391.111 342.45C388.48 340.691 386.429 338.193 385.218 335.269C384.007 332.345 383.69 329.128 384.307 326.025C384.925 322.921 386.449 320.07 388.686 317.832C390.924 315.595 393.775 314.071 396.879 313.453C399.982 312.836 403.199 313.153 406.123 314.364C409.047 315.575 411.545 317.626 413.304 320.257C415.062 322.888 416 325.981 416 329.146C415.995 333.388 414.308 337.455 411.308 340.454C408.309 343.454 404.242 345.141 400 345.146ZM464 321.146H460.944L444.944 289.146H464V321.146ZM464 233.146H452.281L440 214.725V185.146H464V233.146Z" fill="black"/>
</svg>
