<svg width="50" height="50" viewBox="0 0 50 50" fill="none" xmlns="http://www.w3.org/2000/svg">
<g clip-path="url(#clip0_405_942)">
<path fill-rule="evenodd" clip-rule="evenodd" d="M31.3415 11.3064C30.9608 11.3064 30.6385 10.9549 30.6385 10.5741V5.6532C30.6385 5.59461 30.6385 3.86644 31.8102 2.92912C32.4253 2.43117 33.1869 2.25542 34.1535 2.40188C34.6807 1.3181 35.911 -0.0878707 38.0492 2.75252e-06C39.7774 0.0878762 42.4136 1.3181 44.0539 3.51494C45.5185 5.47745 46.0164 7.82074 45.4892 10.3105C45.4013 10.6913 45.0205 10.9549 44.6397 10.867C44.2589 10.7791 44.0246 10.3984 44.1125 9.98829C39.1623 11.3357 36.7604 11.5114 36.2039 10.8377C34.0363 11.1014 31.5466 11.3064 31.3415 11.3064Z" fill="#636363"/>
<path fill-rule="evenodd" clip-rule="evenodd" d="M31.283 9.84183C31.6638 9.6075 32.1617 9.16813 32.8061 8.37727C34.5929 6.18044 38.43 7.70358 39.836 8.34798C40.3339 7.90861 41.2127 7.23492 42.2671 7.23492C42.2964 7.23492 42.2964 7.23492 42.2964 7.23492C42.853 7.23492 43.6731 7.43996 44.4347 8.37727C44.8155 8.87522 45.167 9.2853 45.4599 9.57821C45.577 9.72467 45.6356 9.9297 45.6356 10.1055C46.1336 10.9842 46.4851 12.4195 45.2841 13.679C45.2548 13.7083 45.2256 13.7376 45.167 13.7668C45.167 13.7668 44.7569 14.0598 44.6983 14.4991C44.6104 15.1728 43.1459 20.2109 40.1875 20.9725C39.5431 21.1482 38.8108 21.2361 38.0785 21.2068C37.9613 21.2068 37.8735 21.2068 37.7563 21.2068C37.1119 21.2068 36.5261 21.1482 35.9403 20.9725C32.9819 20.2109 31.5466 15.1728 31.4294 14.4991C31.3708 14.0598 30.9608 13.7668 30.9608 13.7668C30.9315 13.7376 30.8729 13.7083 30.8436 13.679C30.1406 12.9467 30.0234 12.2437 30.0527 11.775C30.082 10.7499 30.8143 10.0762 30.8729 10.0176C30.9901 9.90041 31.1365 9.84183 31.283 9.84183Z" fill="#D7D7D7"/>
<path fill-rule="evenodd" clip-rule="evenodd" d="M40.1875 23.2865C39.9239 23.2865 38.3715 27.0943 38.3129 26.8014C37.2584 27.0943 36.2039 23.2865 35.9696 23.2865C35.6474 23.2865 35.4131 22.935 35.4131 22.5542V19.9766C35.4131 19.5665 35.6474 19.2443 35.9696 19.2443C36.2039 19.2443 38.6351 19.42 39.6603 19.6837C39.7482 19.42 39.9532 19.2443 40.1875 19.2443C40.4805 19.2443 40.7441 19.5665 40.7441 19.9766V22.5542C40.7441 22.935 40.4805 23.2865 40.1875 23.2865Z" fill="#D7D7D7"/>
<path fill-rule="evenodd" clip-rule="evenodd" d="M35.3837 21.8219H35.413H35.4423H35.4716C35.5888 21.8219 35.6473 21.8512 35.7352 21.9098H35.7645V21.9391H35.7938H35.8231V21.9684C35.8524 21.9684 35.8524 21.9977 35.8524 21.9977H35.8817L35.911 22.027V22.0562C35.9403 22.0562 35.9403 22.0855 35.9695 22.0855V22.1148V22.1441H35.9988V22.1734H36.0281V22.2027L38.0785 26.0105L40.1289 22.2027V22.1734L40.1582 22.1441V22.1148C40.2168 22.027 40.3046 21.9684 40.3925 21.9098H40.4218V21.8805H40.4511H40.4804L40.5097 21.8512H40.539H40.5683L40.5975 21.8219H40.6268H40.6561C40.6854 21.8219 40.7147 21.8219 40.744 21.8219H42.355C46.1336 21.8219 49.2091 24.9854 49.2091 28.9104V35.2666C49.2091 35.6766 48.8869 35.9988 48.5062 35.9988H27.6216C27.2408 35.9988 26.9186 35.6766 26.9186 35.2666V28.9104C26.9186 24.9854 30.0234 21.8219 33.802 21.8219H35.3837Z" fill="#1B3764"/>
<path fill-rule="evenodd" clip-rule="evenodd" d="M45.1377 35.9988H43.7318V31.4587C43.7318 30.9022 44.0247 30.4628 44.4348 30.4628C44.8155 30.4628 45.1377 30.9022 45.1377 31.4587V35.9988ZM32.4254 35.9988H31.0194V31.4587C31.0194 30.9022 31.3416 30.4628 31.7224 30.4628C32.1032 30.4628 32.4254 30.9022 32.4254 31.4587V35.9988Z" fill="#A9A9AA"/>
<path fill-rule="evenodd" clip-rule="evenodd" d="M5.18456 25.2783C4.80377 25.2783 4.48157 24.9561 4.48157 24.5753V19.6544C4.48157 19.5958 4.48157 17.8676 5.65321 16.9303C6.26833 16.4323 7.05919 16.2566 7.99651 16.4031C8.52375 15.3193 9.78327 13.9133 11.8922 14.0012C13.6204 14.0891 16.2566 15.3193 17.8969 17.5161C19.3615 19.4786 19.8594 21.8219 19.3322 24.3117C19.2443 24.6924 18.8635 24.9561 18.4827 24.8682C18.102 24.7803 17.8676 24.3995 17.9555 23.9895C13.0346 25.3369 10.6034 25.5126 10.0762 24.8389C7.87934 25.1025 5.41888 25.2783 5.18456 25.2783Z" fill="#636363"/>
<path fill-rule="evenodd" clip-rule="evenodd" d="M5.12604 23.843C5.50683 23.6087 6.03407 23.1693 6.64918 22.3784C8.43594 20.1816 12.2731 21.7048 13.6791 22.3492C14.177 21.8805 15.0557 21.2361 16.1102 21.2361C16.1395 21.2361 16.1395 21.2361 16.1395 21.2361C16.696 21.2361 17.5162 21.4411 18.2778 22.3784C18.6586 22.8471 19.01 23.2572 19.303 23.5794C19.4201 23.7258 19.4787 23.9309 19.4787 24.1066C19.9767 24.9854 20.3281 26.4206 19.1272 27.6801C19.0979 27.7094 19.0686 27.7387 19.0393 27.768C19.0393 27.768 18.6 28.0609 18.5414 28.5003C18.4535 29.174 17.0183 34.2121 14.0306 34.9736C13.3861 35.1494 12.6539 35.2373 11.9216 35.208C11.8044 35.208 11.7166 35.208 11.5994 35.208C10.955 35.208 10.3692 35.1201 9.78334 34.9736C6.82493 34.2121 5.38966 29.174 5.30179 28.5003C5.21392 28.0609 4.80384 27.768 4.80384 27.768C4.77455 27.7387 4.71597 27.7094 4.68667 27.6801C4.01298 26.9479 3.86652 26.2449 3.89581 25.7762C3.9251 24.751 4.65738 24.0773 4.74526 24.0188C4.86242 23.9016 4.97959 23.843 5.12604 23.843Z" fill="#D7D7D7"/>
<path fill-rule="evenodd" clip-rule="evenodd" d="M14.0304 37.2584C13.7668 37.2584 12.2144 41.0955 12.1558 40.8026C11.1013 41.0955 10.0468 37.2584 9.81251 37.2584C9.49031 37.2584 9.25598 36.9362 9.25598 36.5554V33.9777C9.25598 33.5677 9.49031 33.2455 9.81251 33.2455C10.0468 33.2455 12.478 33.4212 13.5032 33.6848C13.5911 33.4212 13.7961 33.2455 14.0304 33.2455C14.3234 33.2455 14.587 33.5677 14.587 33.9777V36.5554C14.587 36.9362 14.3234 37.2584 14.0304 37.2584Z" fill="#D7D7D7"/>
<path fill-rule="evenodd" clip-rule="evenodd" d="M9.25604 35.8231H9.28533H9.31462H9.34391C9.43178 35.8231 9.51966 35.8524 9.57824 35.911H9.60753L9.63682 35.9403H9.66611V35.9695C9.6954 35.9695 9.6954 35.9695 9.7247 35.9988L9.75399 36.0281V36.0574C9.78328 36.0574 9.78328 36.0867 9.81257 36.0867V36.116H9.84186V36.1453V36.1746H9.87115V36.2039L11.9215 40.0117L13.9719 36.2039V36.1746L14.0012 36.1453V36.116C14.0598 36.0281 14.1477 35.9695 14.2355 35.911H14.2648L14.2941 35.8817H14.3234L14.3527 35.8524H14.382H14.4113V35.8231H14.4406H14.4699H14.4992C14.5284 35.8231 14.5577 35.8231 14.587 35.8231H16.198C19.9766 35.8231 23.0522 38.9865 23.0522 42.9115V49.2677C23.0522 49.6778 22.73 50 22.3492 50H1.49388C1.08381 50 0.790894 49.6778 0.790894 49.2677V42.9115C0.790894 38.9865 3.86646 35.8231 7.64502 35.8231H9.25604Z" fill="#929292"/>
<path fill-rule="evenodd" clip-rule="evenodd" d="M18.9806 50H17.5747V45.4599C17.5747 44.9033 17.8676 44.464 18.2777 44.464C18.6584 44.464 18.9806 44.9033 18.9806 45.4599V50ZM6.26828 50H4.8623V45.4599C4.8623 44.9033 5.18451 44.464 5.56529 44.464C5.94608 44.464 6.26828 44.9033 6.26828 45.4599V50Z" fill="#757676"/>
</g>
<defs>
<clipPath id="clip0_405_942">
<rect width="50" height="50" fill="white"/>
</clipPath>
</defs>
</svg>
