<svg width="32" height="32" viewBox="0 0 32 32" fill="none" xmlns="http://www.w3.org/2000/svg">
<g clip-path="url(#clip0_160_103)" filter="url(#filter0_d_160_103)">
<path d="M25.12 5.52002H6.88002C6.61602 5.52002 6.40002 5.73602 6.40002 6.00002V18C6.40002 18.264 6.61602 18.48 6.88002 18.48H25.12C25.384 18.48 25.6 18.264 25.6 18V6.00002C25.6 5.73602 25.384 5.52002 25.12 5.52002ZM23.968 6.48002L16 14.448L8.03202 6.48002H23.968ZM7.36002 7.15202L12.208 12L7.36002 16.848V7.15202ZM8.05602 17.52L12.88 12.696L15.664 15.48C15.856 15.672 16.144 15.672 16.336 15.48L19.12 12.696L23.944 17.52H8.05602ZM24.64 16.848L19.792 12L24.64 7.15202V16.848Z" fill="white"/>
<path d="M196.96 -122.4V281.76H-231.2V-122.4H196.96ZM198.88 -124.32H-233.12V283.68H198.88V-124.32Z" fill="#0000FF"/>
</g>
<defs>
<filter id="filter0_d_160_103" x="0" y="0" width="32" height="32" filterUnits="userSpaceOnUse" color-interpolation-filters="sRGB">
<feFlood flood-opacity="0" result="BackgroundImageFix"/>
<feColorMatrix in="SourceAlpha" type="matrix" values="0 0 0 0 0 0 0 0 0 0 0 0 0 0 0 0 0 0 127 0" result="hardAlpha"/>
<feOffset dy="4"/>
<feGaussianBlur stdDeviation="2"/>
<feComposite in2="hardAlpha" operator="out"/>
<feColorMatrix type="matrix" values="0 0 0 0 0 0 0 0 0 0 0 0 0 0 0 0 0 0 0.25 0"/>
<feBlend mode="normal" in2="BackgroundImageFix" result="effect1_dropShadow_160_103"/>
<feBlend mode="normal" in="SourceGraphic" in2="effect1_dropShadow_160_103" result="shape"/>
</filter>
<clipPath id="clip0_160_103">
<rect width="24" height="24" fill="white" transform="translate(4)"/>
</clipPath>
</defs>
</svg>
