<svg width="180" height="87" viewBox="0 0 180 87" fill="none" xmlns="http://www.w3.org/2000/svg">
<g clip-path="url(#clip0_68_120)">
<path d="M88.347 42.1006L84.9999 27.7787L78.7822 42.4131H77.8185L71.5387 27.7787L68.2641 42.1006H64.606L69.8806 19.7934H71.6319L78.3469 36.0766L84.5646 19.7934H86.2952L92.0155 42.1006H88.347Z" fill="#FCFDFF"/>
<path d="M110.867 42.1008L109.022 37.4022H99.074L97.1158 42.1008H93.0533L103.892 19.4703H104.857L114.908 42.1008H110.867ZM104.256 25.3435L100.11 35.1608H107.986L104.256 25.3435Z" fill="#FCFDFF"/>
<path d="M123.941 42.1005H116.967V19.8149C119.73 19.6568 121.875 19.5778 123.402 19.5778C125.354 19.4668 127.293 19.9579 128.977 20.9895C129.639 21.4268 130.179 22.0372 130.542 22.7597C130.906 23.4821 131.081 24.2913 131.05 25.1061C131.034 25.6382 130.914 26.1614 130.697 26.6434C130.479 27.1253 130.169 27.5558 129.785 27.908C129.021 28.7301 128.04 29.2999 126.966 29.546C130.683 30.2644 132.545 32.2975 132.552 35.6454C132.569 36.5771 132.359 37.4981 131.941 38.3219C131.522 39.1456 130.908 39.8452 130.158 40.3548C128.313 41.6012 126.138 42.2119 123.941 42.1005ZM120.314 22.2288V28.63C120.998 28.6839 121.868 28.7162 122.925 28.7162C126.096 28.7162 127.692 27.5416 127.692 25.2031C127.692 23.1483 126.224 22.1175 123.288 22.1103C122.48 22.1103 121.496 22.1534 120.335 22.2288H120.314ZM120.314 31.0008V39.5142C121.558 39.622 122.386 39.6651 122.956 39.6651C124.534 39.7663 126.106 39.3921 127.485 38.5874C127.996 38.1935 128.402 37.6695 128.664 37.0657C128.925 36.4619 129.033 35.7985 128.977 35.139C129.026 34.5177 128.921 33.8936 128.671 33.3272C128.42 32.7608 128.033 32.2713 127.547 31.906C126.291 31.1528 124.849 30.804 123.402 30.9038L120.314 31.0008Z" fill="#FCFDFF"/>
<path d="M152.855 42.1007H149.58V26.0977L136.181 42.4133H135.342V19.7828H138.607V35.7966L152.025 19.4918H152.886L152.855 42.1007Z" fill="#FCFDFF"/>
<path d="M172.027 20.6233L170.939 23.242C169.438 22.4017 167.737 22.0276 166.038 22.1644C165.048 22.1186 164.064 22.3289 163.172 22.7766C162.281 23.2242 161.51 23.8952 160.929 24.7292C159.66 26.6206 159.016 28.89 159.095 31.1951C159.026 33.3854 159.68 35.5341 160.949 37.2837C161.553 38.0877 162.332 38.7302 163.222 39.1576C164.113 39.585 165.089 39.7849 166.069 39.7407C167.029 39.8012 167.99 39.6337 168.878 39.251C169.766 38.8682 170.56 38.2802 171.198 37.5316L173.001 39.8809C170.969 41.6776 168.361 42.6125 165.696 42.4996C164.311 42.5711 162.929 42.3177 161.652 41.758C160.375 41.1983 159.236 40.3469 158.318 39.2666C156.476 36.9501 155.526 34.0044 155.655 31.0011C155.579 27.9834 156.579 25.0432 158.463 22.7463C159.384 21.6367 160.535 20.7573 161.828 20.1733C163.121 19.5894 164.525 19.3159 165.934 19.3733C168.031 19.2835 170.12 19.7119 172.027 20.6233Z" fill="#FCFDFF"/>
</g>
<path d="M55 42.481C54.981 38.9776 54.2919 35.5124 52.9724 32.2841C51.6528 29.0557 49.7284 26.1279 47.3098 23.668C44.8911 21.2081 42.0255 19.2647 38.8775 17.949C35.7293 16.6334 32.3604 15.9714 28.9637 16.001C25.5731 15.9812 22.2121 16.6505 19.0723 17.9706C15.9325 19.2907 13.0755 21.2357 10.6646 23.6946C8.25365 26.1535 6.33587 29.0781 5.02078 32.3015C3.70569 35.5248 3.01904 38.9839 3.00003 42.481C2.9943 46.1135 3.72331 49.7074 5.14049 53.0329L14.4763 33.9868L6.77305 56.2136C6.8577 56.3633 6.94235 56.5378 7.03911 56.6875C7.90979 54.9538 17.439 35.6457 17.439 35.6457L9.04653 59.5189L9.32468 59.8806C10.1107 58.2715 19.9907 37.8409 19.9907 37.8409L11.7554 62.3003C11.8503 62.4023 11.9513 62.4981 12.0577 62.5872L22.2641 39.5872L14.6941 64.6452C18.8878 67.451 23.7718 68.9617 28.7705 68.9993C33.769 69.0368 38.6739 67.5997 42.9069 64.8572L35.9776 39.9115L45.5312 62.9489L45.8939 62.6495L38.2512 38.1777L48.2763 60.2423L48.6028 59.8556L40.9238 36.0324L50.7311 56.9868C50.8278 56.8372 50.9005 56.7001 50.985 56.5503L43.9228 34.4608L52.666 53.4196C54.1996 49.9896 54.9958 46.2581 55 42.481ZM29.1934 53.008L29.786 54.6669C29.786 54.6669 29.5442 54.1182 29.1209 53.1951L28.3954 54.6669L29 52.983C26.1581 46.7467 16.121 24.5823 14.8875 21.938L17.5117 20.354L29.1572 52.7835L40.7666 20.4288L43.3907 22.0628L29.1934 53.008Z" fill="#FCFDFF"/>
<path d="M95.5742 68V52.6H108.004V55.438H99.1162V58.606H103.384C105.247 58.606 106.662 58.9947 107.63 59.772C108.613 60.5493 109.104 61.6787 109.104 63.16C109.104 64.6853 108.561 65.8733 107.476 66.724C106.391 67.5747 104.858 68 102.878 68H95.5742ZM99.1162 65.36H102.68C103.589 65.36 104.286 65.184 104.77 64.832C105.254 64.4653 105.496 63.9373 105.496 63.248C105.496 61.8987 104.557 61.224 102.68 61.224H99.1162V65.36ZM115.094 58.804H122.508V61.576H115.094V58.804ZM115.358 65.14H123.74V68H111.816V52.6H123.454V55.46H115.358V65.14ZM129.941 68V54.69L130.755 55.504H125.035V52.6H138.389V55.504H132.669L133.461 54.69V68H129.941ZM147.782 68.264C146.565 68.264 145.435 68.066 144.394 67.67C143.367 67.274 142.473 66.7167 141.71 65.998C140.962 65.2793 140.375 64.436 139.95 63.468C139.539 62.5 139.334 61.444 139.334 60.3C139.334 59.156 139.539 58.1 139.95 57.132C140.375 56.164 140.969 55.3207 141.732 54.602C142.495 53.8833 143.389 53.326 144.416 52.93C145.443 52.534 146.557 52.336 147.76 52.336C148.977 52.336 150.092 52.534 151.104 52.93C152.131 53.326 153.018 53.8833 153.766 54.602C154.529 55.3207 155.123 56.164 155.548 57.132C155.973 58.0853 156.186 59.1413 156.186 60.3C156.186 61.444 155.973 62.5073 155.548 63.49C155.123 64.458 154.529 65.3013 153.766 66.02C153.018 66.724 152.131 67.274 151.104 67.67C150.092 68.066 148.985 68.264 147.782 68.264ZM147.76 65.228C148.449 65.228 149.08 65.1107 149.652 64.876C150.239 64.6413 150.752 64.304 151.192 63.864C151.632 63.424 151.969 62.9033 152.204 62.302C152.453 61.7007 152.578 61.0333 152.578 60.3C152.578 59.5667 152.453 58.8993 152.204 58.298C151.969 57.6967 151.632 57.176 151.192 56.736C150.767 56.296 150.261 55.9587 149.674 55.724C149.087 55.4893 148.449 55.372 147.76 55.372C147.071 55.372 146.433 55.4893 145.846 55.724C145.274 55.9587 144.768 56.296 144.328 56.736C143.888 57.176 143.543 57.6967 143.294 58.298C143.059 58.8993 142.942 59.5667 142.942 60.3C142.942 61.0187 143.059 61.686 143.294 62.302C143.543 62.9033 143.881 63.424 144.306 63.864C144.746 64.304 145.259 64.6413 145.846 64.876C146.433 65.1107 147.071 65.228 147.76 65.228ZM169.492 52.6H173.056V68H169.492V52.6ZM162.496 68H158.932V52.6H162.496V68ZM169.756 61.686H162.232V58.672H169.756V61.686Z" fill="#FCFDFF"/>
<defs>
<clipPath id="clip0_68_120">
<rect width="166" height="46" fill="white" transform="translate(7 8)"/>
</clipPath>
</defs>
</svg>
