<svg width="24" height="24" viewBox="0 0 24 24" fill="none" xmlns="http://www.w3.org/2000/svg">
<path d="M12 23.8795L11.5885 23.284C11.279 22.8355 4 12.2495 4 8C4 3.589 7.589 0 12 0C16.411 0 20 3.589 20 8C20 12.2495 12.721 22.8355 12.4115 23.284L12 23.8795ZM12 1C8.14 1 5 4.14 5 8C5 11.3935 10.4425 19.7775 12 22.107C13.5575 19.7775 19 11.3935 19 8C19 4.14 15.86 1 12 1Z" fill="white"/>
<path d="M12 11.5C10.0705 11.5 8.5 9.93 8.5 8C8.5 6.07 10.0705 4.5 12 4.5C13.9295 4.5 15.5 6.07 15.5 8C15.5 9.93 13.9295 11.5 12 11.5ZM12 5.5C10.6215 5.5 9.5 6.6215 9.5 8C9.5 9.3785 10.6215 10.5 12 10.5C13.3785 10.5 14.5 9.3785 14.5 8C14.5 6.6215 13.3785 5.5 12 5.5Z" fill="white"/>
</svg>
