<svg width="97" height="50" viewBox="0 0 97 50" fill="none" xmlns="http://www.w3.org/2000/svg">
<path d="M57.7857 12.1269L47.5394 6.04464C46.728 5.67165 45.883 5.37622 45.0156 5.16234L39.2803 3.75442C38.1742 3.48135 37.039 3.34268 35.8994 3.34143C35.4474 3.34143 34.9577 3.34143 34.5057 3.41652L7.24207 5.01216C6.88885 5.04657 6.55374 5.18434 6.27891 5.40815C6.00409 5.63196 5.80183 5.93179 5.6976 6.26991L5.65051 6.4764V13.1406L22.602 25.596H27.3107V27.8393C28.6667 28.7458 30.1709 29.4096 31.7558 29.801L37.4062 31.1901C38.2717 31.3976 39.1543 31.5264 40.0431 31.575L52.3612 32.2226H52.5684C53.1928 32.2312 53.8093 32.0826 54.3608 31.7906C54.9123 31.4985 55.3809 31.0725 55.7232 30.5519C59.0853 25.3426 60.432 21.1 59.9988 15.1867C59.9335 14.5275 59.6944 13.8971 59.3058 13.3597C58.9171 12.8223 58.3926 12.3969 57.7857 12.1269ZM88.5243 14.3326H74.3981C74.1483 14.3326 73.9088 14.4315 73.7322 14.6075C73.5556 14.7835 73.4563 15.0223 73.4563 15.2712V35.9207C73.4563 35.9207 75.3398 34.0435 80.0486 34.0435C80.0486 34.0435 83.8156 34.0435 87.5826 38.7366H94.1748V25.596L88.5243 14.3326ZM89.9746 27.4732H80.0486V19.0257H86.1699C87.5826 19.0257 87.6956 19.3542 87.6956 19.3542C87.6956 19.3542 90.4078 25.596 90.7657 26.2812C91.1235 26.9664 89.9746 27.4732 89.9746 27.4732Z" fill="#1B3764"/>
<path d="M88.2511 19.3636C88.1434 19.1225 87.9676 18.9178 87.7452 18.7745C87.5228 18.6312 87.2634 18.5554 86.9986 18.5564H80.331C80.1312 18.5564 79.9396 18.6355 79.7983 18.7763C79.657 18.9172 79.5776 19.1081 79.5776 19.3073V27.1541C79.5801 27.3625 79.6642 27.5616 79.812 27.7089C79.9599 27.8563 80.1597 27.9401 80.3687 27.9426H89.692C89.9499 27.943 90.2038 27.8791 90.4306 27.7567C90.6574 27.6342 90.8498 27.4571 90.9903 27.2416C91.1307 27.026 91.2148 26.7787 91.2348 26.5225C91.2547 26.2662 91.21 26.009 91.1046 25.7744L88.2511 19.3636ZM90.2005 26.7317C90.1448 26.8153 90.0692 26.8839 89.9805 26.9313C89.8918 26.9788 89.7927 27.0038 89.692 27.0039H80.5194V19.495H86.9986C87.0807 19.4955 87.1609 19.5196 87.2294 19.5646C87.2979 19.6096 87.3519 19.6735 87.3847 19.7484L90.21 26.1498C90.2572 26.2399 90.281 26.3403 90.2794 26.442C90.2777 26.5436 90.2506 26.6432 90.2005 26.7317Z" fill="black"/>
<path d="M20.7184 39.6752C19.9734 39.6752 19.2451 39.8954 18.6256 40.308C18.0061 40.7205 17.5233 41.3069 17.2382 41.9929C16.953 42.679 16.8784 43.4339 17.0238 44.1621C17.1691 44.8904 17.5279 45.5594 18.0547 46.0845C18.5816 46.6096 19.2528 46.9671 19.9835 47.112C20.7142 47.2569 21.4716 47.1825 22.16 46.8984C22.8483 46.6142 23.4366 46.133 23.8505 45.5156C24.2645 44.8981 24.4854 44.1723 24.4854 43.4297C24.4854 42.4339 24.0885 41.479 23.3821 40.7749C22.6756 40.0708 21.7175 39.6752 20.7184 39.6752ZM20.7184 46.2455C20.1596 46.2455 19.6134 46.0804 19.1488 45.771C18.6842 45.4616 18.3221 45.0218 18.1082 44.5073C17.8944 43.9927 17.8384 43.4266 17.9475 42.8803C18.0565 42.3341 18.3255 41.8324 18.7207 41.4386C19.1158 41.0448 19.6192 40.7766 20.1672 40.668C20.7153 40.5593 21.2833 40.6151 21.7996 40.8282C22.3158 41.0413 22.7571 41.4022 23.0675 41.8653C23.378 42.3284 23.5437 42.8728 23.5437 43.4297C23.5437 44.1765 23.246 44.8927 22.7162 45.4208C22.1863 45.9489 21.4677 46.2455 20.7184 46.2455Z" fill="black"/>
<path d="M34.8446 39.6752C34.0996 39.6752 33.3713 39.8954 32.7518 40.308C32.1323 40.7205 31.6495 41.3069 31.3644 41.9929C31.0793 42.679 31.0047 43.4339 31.15 44.1621C31.2954 44.8904 31.6541 45.5594 32.181 46.0845C32.7078 46.6096 33.379 46.9671 34.1097 47.112C34.8405 47.2569 35.5979 47.1825 36.2862 46.8984C36.9745 46.6142 37.5628 46.133 37.9768 45.5156C38.3907 44.8981 38.6116 44.1723 38.6116 43.4297C38.6116 42.4339 38.2147 41.479 37.5083 40.7749C36.8018 40.0708 35.8437 39.6752 34.8446 39.6752ZM34.8446 46.2455C34.2858 46.2455 33.7396 46.0804 33.275 45.771C32.8104 45.4616 32.4483 45.0218 32.2344 44.5073C32.0206 43.9927 31.9647 43.4266 32.0737 42.8803C32.1827 42.3341 32.4518 41.8324 32.8469 41.4386C33.242 41.0448 33.7454 40.7766 34.2935 40.668C34.8415 40.5593 35.4096 40.6151 35.9258 40.8282C36.442 41.0413 36.8833 41.4022 37.1937 41.8653C37.5042 42.3284 37.6699 42.8728 37.6699 43.4297C37.6699 44.1765 37.3722 44.8927 36.8424 45.4208C36.3125 45.9489 35.5939 46.2455 34.8446 46.2455Z" fill="black"/>
<path d="M79.1068 39.6752C78.3618 39.6752 77.6335 39.8954 77.014 40.308C76.3945 40.7205 75.9117 41.3069 75.6266 41.9929C75.3415 42.679 75.2669 43.4339 75.4122 44.1621C75.5576 44.8904 75.9163 45.5594 76.4432 46.0845C76.97 46.6096 77.6412 46.9671 78.3719 47.112C79.1027 47.2569 79.8601 47.1825 80.5484 46.8984C81.2367 46.6142 81.8251 46.133 82.239 45.5156C82.6529 44.8981 82.8738 44.1723 82.8738 43.4297C82.8738 42.4339 82.477 41.479 81.7705 40.7749C81.0641 40.0708 80.1059 39.6752 79.1068 39.6752ZM79.1068 46.2455C78.5481 46.2455 78.0018 46.0804 77.5372 45.771C77.0726 45.4616 76.7105 45.0218 76.4967 44.5073C76.2828 43.9927 76.2269 43.4266 76.3359 42.8803C76.4449 42.3341 76.714 41.8324 77.1091 41.4386C77.5042 41.0448 78.0076 40.7766 78.5557 40.668C79.1037 40.5593 79.6718 40.6151 80.188 40.8282C80.7043 41.0413 81.1455 41.4022 81.4559 41.8653C81.7664 42.3284 81.9321 42.8728 81.9321 43.4297C81.9321 44.1765 81.6344 44.8927 81.1046 45.4208C80.5748 45.9489 79.8561 46.2455 79.1068 46.2455Z" fill="black"/>
<path d="M95.8699 37.798H95.1165V27.1259C95.1153 25.9733 94.8478 24.8363 94.3349 23.8032L89.8239 14.8301C89.6093 14.3981 89.2778 14.0347 88.8667 13.7809C88.4555 13.5271 87.9814 13.3931 87.4978 13.394H74.7183C74.1338 13.394 73.5733 13.6254 73.16 14.0373C72.7467 14.4492 72.5146 15.0079 72.5146 15.5904V34.0435H63.0971V24.0754C63.0946 23.4837 62.8577 22.917 62.4379 22.4986C62.0181 22.0802 61.4494 21.844 60.8557 21.8415H60.6015C60.987 19.6232 61.0914 17.3653 60.9122 15.1211C60.8387 14.2939 60.5463 13.501 60.0649 12.8232C59.5834 12.1455 58.9301 11.6072 58.1718 11.2633L47.935 5.19051C47.0686 4.79426 46.1669 4.48001 45.2416 4.2519L39.5534 2.81582C38.3734 2.52428 37.1623 2.37615 35.9465 2.37467C35.4662 2.37467 35.0048 2.37467 34.4962 2.44976L7.18553 4.06417C6.98325 4.08963 6.78432 4.13684 6.59223 4.20497V3.10679C6.58748 2.6379 6.44244 2.18109 6.17569 1.79483C5.90893 1.40857 5.5326 1.11044 5.09485 0.938588L3.26786 0.168924C2.90617 0.0270786 2.51525 -0.0247854 2.12893 0.01782C1.7426 0.0604255 1.37251 0.196217 1.05069 0.413443C0.728861 0.630669 0.464994 0.922785 0.28192 1.26451C0.0988468 1.60624 0.00208202 1.98728 0 2.37467L0 22.6394C0.00222475 25.3891 1.09021 28.0276 3.02872 29.9842C4.96723 31.9409 7.6005 33.0585 10.3592 33.0955V34.0341H7.53398C7.28421 34.0341 7.04468 34.133 6.86806 34.3091C6.69145 34.4851 6.59223 34.7238 6.59223 34.9727C6.59223 35.2217 6.69145 35.4604 6.86806 35.6365C7.04468 35.8125 7.28421 35.9114 7.53398 35.9114H13.015C12.2014 36.6119 11.5453 37.4756 11.0893 38.446C10.6333 39.4164 10.3877 40.4717 10.3686 41.5431V46.2361C10.3686 46.4851 10.4679 46.7238 10.6445 46.8998C10.8211 47.0759 11.0606 47.1747 11.3104 47.1747C11.5602 47.1747 11.7997 47.0759 11.9763 46.8998C12.1529 46.7238 12.2521 46.4851 12.2521 46.2361V44.3589H14.211C14.4486 45.9118 15.2366 47.3286 16.4322 48.3522C17.6277 49.3759 19.1517 49.9387 20.7279 49.9387C22.304 49.9387 23.828 49.3759 25.0236 48.3522C26.2191 47.3286 27.0071 45.9118 27.2448 44.3589H28.3372C28.5748 45.9118 29.3628 47.3286 30.5584 48.3522C31.7539 49.3759 33.2779 49.9387 34.8541 49.9387C36.4302 49.9387 37.9542 49.3759 39.1498 48.3522C40.3454 47.3286 41.1334 45.9118 41.371 44.3589H48.387C48.8102 44.362 49.2269 44.2544 49.5954 44.0469C49.9639 43.8394 50.2714 43.5392 50.4871 43.1762L51.4288 41.5806H65.2631C65.5223 41.581 65.7765 41.6524 65.9977 41.7871L69.7647 44.0022C70.1932 44.2617 70.6853 44.3981 71.1867 44.3964H72.637C72.8746 45.9494 73.6626 47.3661 74.8582 48.3898C76.0537 49.4134 77.5777 49.9762 79.1539 49.9762C80.73 49.9762 82.254 49.4134 83.4496 48.3898C84.6452 47.3661 85.4332 45.9494 85.6708 44.3964H95.9547C96.2411 44.3842 96.5113 44.2603 96.7068 44.0513C96.9024 43.8424 97.0077 43.5651 97 43.2795V38.9243C97 38.7764 96.9708 38.6299 96.914 38.4933C96.8572 38.3566 96.7739 38.2325 96.669 38.1279C96.5641 38.0233 96.4395 37.9403 96.3024 37.8837C96.1653 37.8271 96.0183 37.798 95.8699 37.798ZM74.3981 15.5904C74.3981 15.5057 74.4318 15.4246 74.4918 15.3647C74.5519 15.3049 74.6333 15.2712 74.7183 15.2712H87.4978C87.6309 15.2701 87.7617 15.3065 87.875 15.3762C87.9884 15.446 88.0796 15.5463 88.1382 15.6655L92.6491 24.648C93.0345 25.4175 93.2344 26.2659 93.233 27.1259V37.798H87.6579C87.5401 37.7983 87.4242 37.7693 87.3205 37.7135C87.2169 37.6578 87.1289 37.5771 87.0646 37.4789C85.7669 35.4284 83.7236 33.9578 81.3625 33.3752C79.0014 32.7926 76.5057 33.1431 74.3981 34.3533V15.5904ZM59.9328 23.7188H60.8746C60.9695 23.7188 61.0605 23.7563 61.1276 23.8232C61.1947 23.8901 61.2324 23.9808 61.2324 24.0754V34.0435H55.1487L59.9328 23.7188ZM53.0769 34.0435H28.2524V29.4819C29.2945 30.0143 30.394 30.4268 31.5297 30.7114L37.1802 32.1006C38.1065 32.3279 39.0526 32.4662 40.0054 32.5136L52.3235 33.1612H52.5778C52.9104 33.1572 53.2417 33.1195 53.5666 33.0486L53.0769 34.0435ZM6.59223 6.57027C6.64263 6.41659 6.73576 6.28032 6.86079 6.17731C6.98582 6.07429 7.13762 6.00876 7.29854 5.98833L34.5621 4.34576H34.6281C35.0518 4.34576 35.4756 4.28006 35.8994 4.28006C36.9639 4.29027 38.0232 4.42895 39.0543 4.69305L44.7895 6.11035C45.5992 6.30942 46.3876 6.58604 47.1439 6.93633L57.3901 13.0186C57.8412 13.2215 58.2308 13.5391 58.5201 13.9394C58.8093 14.3397 58.988 14.8086 59.0382 15.2994C59.2515 17.6821 59.0637 20.0837 58.4825 22.4047L54.9792 29.9418L54.9133 30.045C54.6561 30.4334 54.3045 30.7507 53.8912 30.9674C53.4779 31.184 53.0164 31.2929 52.5495 31.284H52.3988L40.0808 30.6364C39.248 30.5984 38.4212 30.4757 37.6134 30.2703L31.9629 28.8905C30.6317 28.5661 29.3603 28.0339 28.1959 27.3137C28.1692 26.6014 27.867 25.9272 27.3526 25.432C26.8383 24.9369 26.1517 24.6593 25.4366 24.6574H22.9881L6.59223 12.7182V6.57027ZM6.59223 15.0178L19.6543 24.6574H13.128C12.5511 24.6604 11.9896 24.843 11.522 25.1796C11.0543 25.5161 10.7037 25.9899 10.5193 26.5346C9.46765 26.5149 8.46605 26.0833 7.73114 25.3333C6.99623 24.5833 6.5871 23.5751 6.59223 22.5267V15.0178ZM1.8835 22.6394V2.37467C1.88458 2.29372 1.90475 2.21417 1.94238 2.14243C1.98001 2.07069 2.03403 2.00877 2.1001 1.96168C2.18429 1.90731 2.2823 1.878 2.38262 1.8772C2.44479 1.86481 2.5088 1.86481 2.57097 1.8772L4.39796 2.59994C4.49046 2.63885 4.56933 2.70418 4.62464 2.7877C4.67994 2.87121 4.7092 2.96918 4.70874 3.06924V22.5267C4.70995 24.0411 5.29874 25.4964 6.35189 26.588C7.40505 27.6797 8.84097 28.3231 10.3592 28.3837V31.1995C8.10331 31.1627 5.95188 30.2454 4.36709 28.6449C2.78231 27.0443 1.89059 24.8881 1.8835 22.6394ZM12.2427 34.0435V27.4169C12.2427 27.1829 12.336 26.9585 12.502 26.793C12.668 26.6276 12.8932 26.5346 13.128 26.5346H25.4837C25.7185 26.5346 25.9436 26.6276 26.1097 26.793C26.2757 26.9585 26.3689 27.1829 26.3689 27.4169V34.0435H12.2427ZM20.7184 48.1227C19.7871 48.1227 18.8768 47.8475 18.1024 47.3318C17.3281 46.8161 16.7245 46.0832 16.3681 45.2256C16.0117 44.3681 15.9185 43.4245 16.1002 42.5141C16.2819 41.6037 16.7303 40.7675 17.3889 40.1112C18.0474 39.4548 18.8864 39.0079 19.7998 38.8268C20.7132 38.6457 21.66 38.7386 22.5204 39.0938C23.3808 39.449 24.1162 40.0506 24.6336 40.8223C25.151 41.5941 25.4272 42.5015 25.4272 43.4297C25.4272 44.6743 24.9311 45.8681 24.048 46.7482C23.165 47.6283 21.9673 48.1227 20.7184 48.1227ZM34.8447 48.1227C33.9134 48.1227 33.003 47.8475 32.2286 47.3318C31.4543 46.8161 30.8507 46.0832 30.4944 45.2256C30.138 44.3681 30.0447 43.4245 30.2264 42.5141C30.4081 41.6037 30.8566 40.7675 31.5151 40.1112C32.1736 39.4548 33.0126 39.0079 33.926 38.8268C34.8394 38.6457 35.7862 38.7386 36.6466 39.0938C37.507 39.449 38.2424 40.0506 38.7598 40.8223C39.2772 41.5941 39.5534 42.5015 39.5534 43.4297C39.5534 44.6743 39.0573 45.8681 38.1742 46.7482C37.2912 47.6283 36.0935 48.1227 34.8447 48.1227ZM79.1068 48.1227C78.1755 48.1227 77.2651 47.8475 76.4908 47.3318C75.7164 46.8161 75.1129 46.0832 74.7565 45.2256C74.4001 44.3681 74.3069 43.4245 74.4885 42.5141C74.6702 41.6037 75.1187 40.7675 75.7772 40.1112C76.4357 39.4548 77.2748 39.0079 78.1882 38.8268C79.1016 38.6457 80.0483 38.7386 80.9088 39.0938C81.7692 39.449 82.5046 40.0506 83.022 40.8223C83.5394 41.5941 83.8155 42.5015 83.8155 43.4297C83.8155 44.6743 83.3194 45.8681 82.4364 46.7482C81.5533 47.6283 80.3556 48.1227 79.1068 48.1227ZM95.1165 42.4911H85.6237C85.3861 40.9381 84.5981 39.5214 83.4025 38.4977C82.2069 37.4741 80.6829 36.9112 79.1068 36.9112C77.5306 36.9112 76.0067 37.4741 74.8111 38.4977C73.6155 39.5214 72.8275 40.9381 72.5899 42.4911H71.1302C70.9716 42.489 70.8161 42.447 70.6782 42.369L67.3067 40.3604C66.5711 39.9258 65.7321 39.6957 64.877 39.694H51.9656C51.4618 39.6915 50.9665 39.8233 50.531 40.0759C50.0955 40.3284 49.7357 40.6923 49.4888 41.1301L48.7072 42.5098H41.3616C41.1239 40.9569 40.3359 39.5402 39.1404 38.5165C37.9448 37.4929 36.4208 36.93 34.8447 36.93C33.2685 36.93 31.7445 37.4929 30.549 38.5165C29.3534 39.5402 28.5654 40.9569 28.3278 42.5098H27.2353C26.9977 40.9569 26.2097 39.5402 25.0142 38.5165C23.8186 37.4929 22.2946 36.93 20.7184 36.93C19.1423 36.93 17.6183 37.4929 16.4227 38.5165C15.2272 39.5402 14.4392 40.9569 14.2016 42.5098H12.2427V41.6745C12.2477 40.1534 12.8568 38.6961 13.9369 37.6214C15.0169 36.5467 16.48 35.942 18.0062 35.9395H39.3368C40.3667 36.5696 41.2677 37.3881 41.9925 38.3518C42.0782 38.4748 42.1921 38.5756 42.3248 38.6459C42.4575 38.7161 42.6051 38.7536 42.7553 38.7554C42.931 38.7549 43.1031 38.7055 43.2521 38.6127C43.4011 38.5199 43.5211 38.3874 43.5985 38.2302C43.6759 38.073 43.7077 37.8973 43.6901 37.7231C43.6726 37.5488 43.6065 37.383 43.4993 37.2442C43.162 36.7738 42.7872 36.3312 42.3786 35.9208H72.3827C71.9393 36.375 71.5418 36.8718 71.1961 37.4038C71.1224 37.5154 71.0734 37.6415 71.0525 37.7735C71.0317 37.9055 71.0393 38.0405 71.075 38.1694C71.1106 38.2982 71.1735 38.418 71.2594 38.5207C71.3452 38.6233 71.4521 38.7066 71.5728 38.7648C71.773 38.8683 72.0038 38.8969 72.2233 38.8452C72.4428 38.7935 72.6363 38.6651 72.7688 38.4832C73.4548 37.4206 74.3986 36.5478 75.5129 35.9455C76.6273 35.3431 77.8761 35.0308 79.1437 35.0373C80.4114 35.0439 81.6569 35.3691 82.7649 35.9829C83.8729 36.5968 84.8076 37.4793 85.4824 38.5489C85.7266 38.9168 86.0601 39.2172 86.452 39.4223C86.8438 39.6274 87.2813 39.7305 87.7238 39.7221H95.1165V42.4911Z" fill="black"/>
</svg>
