<svg width="100" height="100" viewBox="0 0 100 100" fill="none" xmlns="http://www.w3.org/2000/svg">
<mask id="mask0_2040_165" style="mask-type:alpha" maskUnits="userSpaceOnUse" x="0" y="0" width="100" height="100">
<rect width="100" height="100" fill="#D9D9D9"/>
</mask>
<g mask="url(#mask0_2040_165)">
<path d="M21.0958 85.4154C19.3104 85.4154 17.7778 84.7754 16.4979 83.4956C15.2181 82.2157 14.5781 80.6831 14.5781 78.8977V21.0997C14.5781 19.3143 15.2181 17.7817 16.4979 16.5018C17.7778 15.222 19.3104 14.582 21.0958 14.582H78.8937C80.6792 14.582 82.2118 15.222 83.4917 16.5018C84.7715 17.7817 85.4115 19.3143 85.4115 21.0997V34.157H80.176V21.0997C80.176 20.7254 80.0559 20.4181 79.8156 20.1779C79.5754 19.9376 79.2681 19.8174 78.8937 19.8174H21.0958C20.7215 19.8174 20.4142 19.9376 20.174 20.1779C19.9337 20.4181 19.8135 20.7254 19.8135 21.0997V78.8977C19.8135 79.272 19.9337 79.5793 20.174 79.8195C20.4142 80.0598 20.7215 80.1799 21.0958 80.1799H78.8937C79.2681 80.1799 79.5754 80.0598 79.8156 79.8195C80.0559 79.5793 80.176 79.272 80.176 78.8977V65.8831H85.4115V78.8977C85.4115 80.6831 84.7715 82.2157 83.4917 83.4956C82.2118 84.7754 80.6792 85.4154 78.8937 85.4154H21.0958ZM56.3427 68.0862C54.3642 68.0862 52.6663 67.3848 51.249 65.982C49.8323 64.5793 49.124 62.8876 49.124 60.907V39.1331C49.124 37.1525 49.8323 35.4608 51.249 34.0581C52.6663 32.6553 54.3642 31.9539 56.3427 31.9539H82.4417C84.4417 31.9539 86.1497 32.6553 87.5656 34.0581C88.9823 35.4608 89.6906 37.1525 89.6906 39.1331V60.907C89.6906 62.8876 88.9823 64.5793 87.5656 65.982C86.1497 67.3848 84.4417 68.0862 82.4417 68.0862H56.3427ZM83.1729 62.8508C83.5292 62.8508 83.8319 62.7306 84.0813 62.4904C84.3306 62.2501 84.4552 61.9431 84.4552 61.5695V38.4706C84.4552 38.115 84.3306 37.8126 84.0813 37.5633C83.8319 37.314 83.5292 37.1893 83.1729 37.1893H55.6417C55.2854 37.1893 54.9826 37.314 54.7333 37.5633C54.484 37.8126 54.3594 38.115 54.3594 38.4706V61.5695C54.3594 61.9431 54.484 62.2501 54.7333 62.4904C54.9826 62.7306 55.2854 62.8508 55.6417 62.8508H83.1729ZM71.85 54.5529C73.1028 53.2911 73.7292 51.7588 73.7292 49.956C73.7292 48.1622 73.0955 46.6463 71.8281 45.4081C70.5615 44.1699 69.0413 43.5508 67.2677 43.5508C65.4941 43.5508 63.974 44.1699 62.7073 45.4081C61.4399 46.6463 60.8062 48.1622 60.8062 49.956C60.8062 51.7588 61.4382 53.2911 62.7021 54.5529C63.966 55.8154 65.4934 56.4466 67.2844 56.4466C69.0753 56.4466 70.5972 55.8154 71.85 54.5529Z" fill="#1C1B1F"/>
</g>
</svg>
