<svg width="50" height="50" viewBox="0 0 50 50" fill="none" xmlns="http://www.w3.org/2000/svg">
<path d="M46.1239 14.0992C46.1242 13.9365 46.0924 13.7753 46.0303 13.6249C45.9682 13.4746 45.877 13.3379 45.7619 13.2229C45.6469 13.1078 45.5103 13.0166 45.3599 12.9545C45.2095 12.8924 45.0483 12.8606 44.8856 12.861H39.5156V15.3374H44.8856C45.0483 15.3375 45.2093 15.3055 45.3596 15.2433C45.5099 15.1811 45.6464 15.0899 45.7614 14.9749C45.8764 14.86 45.9676 14.7234 46.0298 14.5731C46.092 14.4229 46.124 14.2618 46.1239 14.0992Z" fill="#2D3E50"/>
<path d="M9.48985 21.6109C8.76276 21.6102 8.05845 21.3571 7.49717 20.8949C6.93589 20.4327 6.55243 19.7901 6.41226 19.0766C6.37144 18.8753 6.35176 18.6703 6.35354 18.4649C6.37397 17.6287 6.72044 16.8336 7.31901 16.2492C7.91758 15.6649 8.72083 15.3377 9.55732 15.3374H10.4853V12.8609H9.58186C8.07563 12.8591 6.62991 13.4536 5.56075 14.5145C4.49159 15.5755 3.88595 17.0166 3.87622 18.5228C3.88325 19.2194 3.87622 21.4049 3.87622 21.9202V46.3876C3.8784 47.1462 4.18072 47.8731 4.71715 48.4095C5.25357 48.946 5.9805 49.2483 6.73911 49.2505H43.2618C44.0204 49.2483 44.7472 48.9459 45.2835 48.4095C45.8197 47.873 46.1219 47.1461 46.1239 46.3876V40.1737H33.9108C33.1124 40.1734 32.3221 40.0144 31.5858 39.7059C30.8495 39.3975 30.1819 38.9457 29.6218 38.3768C29.0617 37.808 28.6202 37.1335 28.3232 36.3925C28.0261 35.6515 27.8793 34.8588 27.8914 34.0606C27.9314 32.4696 28.5937 30.9578 29.736 29.8498C30.8783 28.7417 32.4096 28.1257 34.001 28.1341H46.1239V21.9202C46.1239 21.8169 46.1187 21.7137 46.1081 21.6109H9.48985Z" fill="#2D3E50"/>
<path d="M29.4381 34.1535C29.4394 35.3393 29.9111 36.4762 30.7496 37.3147C31.5881 38.1532 32.7249 38.6248 33.9108 38.6261H46.1239V29.6826H33.9108C32.7252 29.6836 31.5884 30.1549 30.7499 30.9931C29.9114 31.8313 29.4396 32.9679 29.4381 34.1535ZM36.8122 32.9985C36.9712 32.9985 37.1285 33.0298 37.2754 33.0906C37.4222 33.1514 37.5556 33.2406 37.668 33.353C37.7803 33.4653 37.8695 33.5987 37.9303 33.7456C37.9911 33.8924 38.0224 34.0498 38.0224 34.2087C38.0224 34.3676 37.9911 34.525 37.9303 34.6718C37.8695 34.8186 37.7803 34.952 37.668 35.0644C37.5556 35.1768 37.4222 35.2659 37.2754 35.3267C37.1285 35.3876 36.9712 35.4189 36.8122 35.4189H34.1237C33.8028 35.4189 33.4949 35.2914 33.268 35.0644C33.041 34.8375 32.9135 34.5296 32.9135 34.2087C32.9135 33.8877 33.041 33.5799 33.268 33.353C33.4949 33.126 33.8028 32.9985 34.1237 32.9985H36.8122Z" fill="#1B3764"/>
<path d="M17.6378 0.749512H15.4628C15.0623 0.749504 14.6657 0.828378 14.2957 0.981629C13.9257 1.13488 13.5896 1.35951 13.3064 1.64269C13.0232 1.92586 12.7986 2.26205 12.6453 2.63204C12.4921 3.00203 12.4132 3.39858 12.4132 3.79906V19.4525H17.6378V0.749512Z" fill="#1B3764"/>
<path d="M37.587 3.79906C37.587 2.9904 37.2659 2.21484 36.6942 1.64295C36.1225 1.07106 35.347 0.749685 34.5383 0.749512H21.6768V19.4525H37.587V3.79906ZM34.7109 12.9968C34.711 13.133 34.6841 13.268 34.632 13.3939C34.5799 13.5197 34.5034 13.6341 34.4071 13.7305C34.3107 13.8268 34.1964 13.9032 34.0705 13.9554C33.9446 14.0075 33.8097 14.0343 33.6734 14.0343H31.2399C30.9646 14.0344 30.7006 13.9251 30.5059 13.7306C30.3111 13.536 30.2017 13.2721 30.2015 12.9968V4.67011C30.2017 4.39484 30.3111 4.1309 30.5059 3.93634C30.7006 3.74177 30.9646 3.63251 31.2399 3.63257H33.6734C33.8097 3.63255 33.9446 3.65938 34.0705 3.71152C34.1964 3.76365 34.3107 3.84008 34.4071 3.93642C34.5034 4.03277 34.5799 4.14715 34.632 4.27304C34.6841 4.39893 34.711 4.53385 34.711 4.67011L34.7109 12.9968Z" fill="#1B3764"/>
</svg>
