<svg width="24" height="24" viewBox="0 0 24 24" fill="none" xmlns="http://www.w3.org/2000/svg">
<g clip-path="url(#clip0_160_89)">
<path d="M17.5875 15.6975C17.3785 15.4878 17.1301 15.3213 16.8566 15.2078C16.5831 15.0942 16.2899 15.0357 15.9937 15.0357C15.6976 15.0357 15.4044 15.0942 15.1309 15.2078C14.8574 15.3213 14.609 15.4878 14.4 15.6975L13.3125 16.785C12.0881 16.0079 10.9536 15.0973 9.93 14.07C8.90485 13.0445 7.99448 11.9103 7.215 10.6875L8.3025 9.60002C8.51226 9.39099 8.67869 9.14261 8.79225 8.86911C8.90582 8.59562 8.96427 8.3024 8.96427 8.00627C8.96427 7.71014 8.90582 7.41692 8.79225 7.14343C8.67869 6.86994 8.51226 6.62156 8.3025 6.41252L6.18 4.29752C5.97392 4.08707 5.72763 3.92019 5.45578 3.80681C5.18392 3.69343 4.89205 3.63586 4.5975 3.63752C4.30086 3.6368 4.00701 3.69473 3.73284 3.808C3.45868 3.92127 3.20962 4.08764 3 4.29752L1.98 5.31002C1.49383 5.83275 1.13098 6.45778 0.918123 7.13918C0.705269 7.82057 0.64782 8.54101 0.75 9.24752C0.99 12.06 2.835 15.4425 5.6775 18.2925C8.52 21.1425 11.94 22.98 14.7525 23.25C14.9623 23.2612 15.1726 23.2612 15.3825 23.25C15.9879 23.2754 16.5923 23.1797 17.1603 22.9685C17.7282 22.7573 18.2483 22.4348 18.69 22.02L19.7025 21C19.9124 20.7904 20.0788 20.5413 20.192 20.2672C20.3053 19.993 20.3632 19.6992 20.3625 19.4025C20.3642 19.108 20.3066 18.8161 20.1932 18.5442C20.0798 18.2724 19.913 18.0261 19.7025 17.82L17.5875 15.6975ZM18.645 19.9425L17.625 20.955C17.2479 21.2693 16.8076 21.499 16.334 21.6284C15.8604 21.7577 15.3646 21.7839 14.88 21.705C12.4425 21.495 9.3375 19.77 6.7725 17.205C4.2075 14.64 2.4825 11.5575 2.25 9.12002C2.16912 8.63546 2.19429 8.13912 2.32377 7.66522C2.45325 7.19132 2.68396 6.75114 3 6.37502L4.0575 5.35502C4.12758 5.28551 4.21069 5.23052 4.30207 5.19319C4.39345 5.15587 4.49129 5.13695 4.59 5.13752C4.6887 5.13695 4.78655 5.15587 4.87793 5.19319C4.96931 5.23052 5.05242 5.28551 5.1225 5.35502L7.245 7.50002C7.38469 7.64054 7.46309 7.83063 7.46309 8.02877C7.46309 8.22691 7.38469 8.417 7.245 8.55752L5.745 10.0575C5.62762 10.1743 5.5522 10.3267 5.53049 10.4908C5.50879 10.655 5.54202 10.8217 5.625 10.965C6.52304 12.4939 7.61455 13.9005 8.8725 15.15C10.1221 16.408 11.5287 17.4995 13.0575 18.3975C13.2008 18.4805 13.3675 18.5137 13.5317 18.492C13.6958 18.4703 13.8482 18.3949 13.965 18.2775L15.465 16.7775C15.6055 16.6378 15.7956 16.5594 15.9937 16.5594C16.1919 16.5594 16.382 16.6378 16.5225 16.7775L18.645 18.9C18.7145 18.9701 18.7695 19.0532 18.8068 19.1446C18.8442 19.236 18.8631 19.3338 18.8625 19.4325C18.8578 19.6241 18.78 19.8065 18.645 19.9425ZM19.95 4.04252C18.9077 2.99625 17.6686 2.16665 16.3041 1.60156C14.9397 1.03647 13.4768 0.747059 12 0.750023C11.8011 0.750023 11.6103 0.82904 11.4697 0.969692C11.329 1.11034 11.25 1.30111 11.25 1.50002C11.25 1.69893 11.329 1.8897 11.4697 2.03035C11.6103 2.171 11.8011 2.25002 12 2.25002C13.2874 2.24998 14.562 2.50488 15.7503 3.00001C16.9387 3.49514 18.0172 4.22071 18.9236 5.13484C19.8301 6.04897 20.5465 7.13356 21.0316 8.32602C21.5167 9.51848 21.7609 10.7952 21.75 12.0825C21.75 12.2814 21.829 12.4722 21.9697 12.6129C22.1103 12.7535 22.3011 12.8325 22.5 12.8325C22.6989 12.8325 22.8897 12.7535 23.0303 12.6129C23.171 12.4722 23.25 12.2814 23.25 12.0825C23.2644 10.59 22.9798 9.10965 22.413 7.72882C21.8463 6.34799 21.0088 5.09459 19.95 4.04252Z" fill="white"/>
<path d="M15.6825 8.33249C16.1081 8.75555 16.4449 9.25948 16.6728 9.81462C16.9008 10.3698 17.0155 10.9649 17.01 11.565C17.01 11.7639 17.089 11.9547 17.2297 12.0953C17.3703 12.236 17.5611 12.315 17.76 12.315C17.9589 12.315 18.1497 12.236 18.2903 12.0953C18.431 11.9547 18.51 11.7639 18.51 11.565C18.5199 10.7708 18.3721 9.98248 18.075 9.24585C17.7779 8.50922 17.3375 7.8389 16.7794 7.27378C16.2212 6.70866 15.5565 6.25999 14.8236 5.95378C14.0907 5.64757 13.3043 5.48993 12.51 5.48999C12.3111 5.48999 12.1203 5.56901 11.9797 5.70966C11.839 5.85031 11.76 6.04108 11.76 6.23999C11.76 6.4389 11.839 6.62967 11.9797 6.77032C12.1203 6.91097 12.3111 6.98999 12.51 6.98999C13.1011 6.99444 13.6855 7.1153 14.2298 7.34565C14.7742 7.57599 15.2678 7.91133 15.6825 8.33249Z" fill="white"/>
</g>
<defs>
<clipPath id="clip0_160_89">
<rect width="24" height="24" fill="white"/>
</clipPath>
</defs>
</svg>
