<?xml version="1.0" encoding="utf-8"?>
<!-- Generator: Adobe Illustrator 16.0.0, SVG Export Plug-In . SVG Version: 6.00 Build 0)  -->
<!DOCTYPE svg PUBLIC "-//W3C//DTD SVG 1.0//EN" "http://www.w3.org/TR/2001/REC-SVG-20010904/DTD/svg10.dtd">
<svg version="1.0" id="Layer_1" xmlns="http://www.w3.org/2000/svg" xmlns:xlink="http://www.w3.org/1999/xlink" x="0px" y="0px"
	 width="100px" height="100px" viewBox="0 0 100 100" enable-background="new 0 0 100 100" xml:space="preserve">
<path d="M90,16.667V10H70v6.667h6.667v46.666H70V80c0,5.521,4.479,10,10,10s10-4.479,10-10V63.333h-6.667V16.667H90z"/>
<rect x="10" y="76.667" width="23.333" height="13.333"/>
<rect x="25" y="56.667" width="23.333" height="13.333"/>
<rect x="55" y="56.667" width="8.333" height="13.333"/>
<rect x="10" y="56.667" width="8.333" height="13.333"/>
<rect x="40" y="76.667" width="23.333" height="13.333"/>
<rect x="10" y="36.667" width="23.333" height="13.333"/>
<rect x="25" y="16.667" width="23.333" height="13.333"/>
<rect x="10" y="16.667" width="8.333" height="13.333"/>
<rect x="40" y="36.667" width="23.333" height="13.333"/>
</svg>
