<?xml version="1.0" encoding="UTF-8" standalone="no"?> <svg width="64" height="64" viewBox="0 0 64 64" fill="none" xmlns="http://www.w3.org/2000/svg">
<path d="M49.5199 24.88C49.8915 22.3657 49.7168 19.8008 49.0079 17.36C48.2989 14.9193 47.0724 12.6599 45.4117 10.7358C43.751 8.81175 41.6952 7.26811 39.3843 6.21002C37.0734 5.15194 34.5616 4.60425 32.0199 4.60425C29.4783 4.60425 26.9665 5.15194 24.6556 6.21002C22.3447 7.26811 20.2889 8.81175 18.6282 10.7358C16.9675 12.6599 15.741 14.9193 15.032 17.36C14.3231 19.8008 14.1484 22.3657 14.5199 24.88C12.0967 25.769 9.89744 27.1779 8.07678 29.0076C6.25612 30.8374 4.85819 33.0436 3.98119 35.4712C3.1042 37.8989 2.76941 40.4892 3.00035 43.06C3.23129 45.6309 4.02236 48.12 5.31799 50.3525C6.61361 52.585 8.38235 54.5068 10.5 55.9827C12.6176 57.4587 15.0327 58.453 17.5756 58.896C20.1186 59.3389 22.7276 59.2196 25.2196 58.5466C27.7115 57.8735 30.0258 56.663 31.9999 55C33.9741 56.6552 36.2862 57.859 38.7744 58.5271C41.2626 59.1951 43.8667 59.3114 46.4044 58.8676C48.9422 58.4238 51.3524 57.4308 53.4662 55.958C55.58 54.4852 57.3464 52.5683 58.6417 50.3414C59.9371 48.1144 60.7301 45.6313 60.9653 43.0657C61.2004 40.5002 60.8721 37.9143 60.0032 35.4889C59.1343 33.0636 57.7458 30.8575 55.935 29.0249C54.1242 27.1924 51.9348 25.7777 49.5199 24.88V24.88ZM16.3099 22.58C16.3099 18.4188 17.963 14.4279 20.9054 11.4855C23.8479 8.54305 27.8387 6.89 31.9999 6.89C36.1612 6.89 40.152 8.54305 43.0944 11.4855C46.0369 14.4279 47.6899 18.4188 47.6899 22.58C47.6901 23.1479 47.6601 23.7153 47.5999 24.28C46.1984 23.9189 44.7573 23.7341 43.3099 23.73C39.1754 23.7258 35.1713 25.1773 31.9999 27.83C28.8286 25.1773 24.8245 23.7258 20.6899 23.73C19.2426 23.7341 17.8015 23.9189 16.3999 24.28C16.3398 23.7153 16.3098 23.1479 16.3099 22.58V22.58ZM36.3799 41.42C36.3803 45.4704 34.8103 49.3632 31.9999 52.28C29.1896 49.3632 27.6196 45.4704 27.6199 41.42C27.6198 40.8521 27.6498 40.2847 27.7099 39.72C30.5229 40.4536 33.477 40.4536 36.2899 39.72C36.3501 40.2847 36.3801 40.8521 36.3799 41.42ZM31.9999 38.27C30.6731 38.266 29.3522 38.0913 28.0699 37.75C28.7216 35.0511 30.0777 32.5735 31.9999 30.57C33.9221 32.5735 35.2783 35.0511 35.9299 37.75C34.6477 38.0913 33.3268 38.266 31.9999 38.27ZM26.1599 37.13C23.8411 36.1942 21.7788 34.719 20.1441 32.8269C18.5093 30.9347 17.3492 28.6801 16.7599 26.25C19.1288 25.6247 21.6123 25.5706 24.0061 26.0921C26.4 26.6136 28.6359 27.6959 30.5299 29.25C28.4186 31.4562 26.9133 34.1707 26.1599 37.13V37.13ZM33.4699 29.22C35.364 27.6659 37.5999 26.5836 39.9937 26.0621C42.3876 25.5406 44.8711 25.5947 47.2399 26.22C46.6507 28.6501 45.4906 30.9047 43.8558 32.7969C42.221 34.689 40.1588 36.1642 37.8399 37.1C37.0866 34.1407 35.5813 31.4262 33.4699 29.22V29.22ZM4.99994 41.42C5.00461 38.2879 5.946 35.2288 7.70307 32.6359C9.46014 30.0431 11.9526 28.0351 14.8599 26.87C15.5575 29.641 16.9149 32.2023 18.8164 34.3353C20.7178 36.4683 23.1069 38.1099 25.7799 39.12C25.4232 41.7403 25.6653 44.4074 26.4881 46.9207C27.3108 49.4339 28.6928 51.7279 30.5299 53.63C28.2278 55.4938 25.4444 56.667 22.5027 57.0134C19.5609 57.3599 16.5812 56.8654 13.909 55.5874C11.2368 54.3094 8.98156 52.3002 7.40473 49.7927C5.82791 47.2852 4.99409 44.3821 4.99994 41.42V41.42ZM43.3099 57.12C39.726 57.1238 36.2505 55.8911 33.4699 53.63C35.3071 51.7279 36.6891 49.4339 37.5118 46.9207C38.3346 44.4074 38.5767 41.7403 38.2199 39.12C40.893 38.1099 43.2821 36.4683 45.1835 34.3353C47.0849 32.2023 48.4423 29.641 49.1399 26.87C52.5207 28.2276 55.3237 30.7193 57.0681 33.9177C58.8124 37.1162 59.3893 40.8219 58.6999 44.3993C58.0104 47.9766 56.0976 51.2025 53.2895 53.5236C50.4814 55.8446 46.9531 57.1162 43.3099 57.12V57.12Z" fill="black"/>
</svg>
