<?xml version="1.0" encoding="UTF-8" standalone="no"?> <svg width="64" height="64" viewBox="0 0 64 64" fill="none" xmlns="http://www.w3.org/2000/svg">
<path d="M32 51C31.4067 51 30.8266 51.1759 30.3333 51.5056C29.8399 51.8352 29.4554 52.3038 29.2284 52.852C29.0013 53.4001 28.9419 54.0033 29.0576 54.5853C29.1734 55.1672 29.4591 55.7018 29.8787 56.1213C30.2982 56.5409 30.8328 56.8266 31.4147 56.9424C31.9967 57.0581 32.5999 56.9987 33.148 56.7716C33.6962 56.5446 34.1648 56.1601 34.4944 55.6667C34.8241 55.1734 35 54.5933 35 54C35 53.2044 34.6839 52.4413 34.1213 51.8787C33.5587 51.3161 32.7957 51 32 51ZM32 55C31.8022 55 31.6089 54.9414 31.4444 54.8315C31.28 54.7216 31.1518 54.5654 31.0761 54.3827C31.0004 54.2 30.9806 53.9989 31.0192 53.8049C31.0578 53.6109 31.153 53.4327 31.2929 53.2929C31.4327 53.153 31.6109 53.0578 31.8049 53.0192C31.9989 52.9806 32.2 53.0004 32.3827 53.0761C32.5654 53.1518 32.7216 53.28 32.8315 53.4444C32.9414 53.6089 33 53.8022 33 54C33 54.2652 32.8946 54.5196 32.7071 54.7071C32.5196 54.8946 32.2652 55 32 55Z" fill="black"/>
<path d="M61.6 26.45L51 18.5V16H52C52.7956 16 53.5587 15.6839 54.1213 15.1213C54.6839 14.5587 55 13.7956 55 13C55 12.2044 54.6839 11.4413 54.1213 10.8787C53.5587 10.3161 52.7956 10 52 10H51C51 9.73478 50.8946 9.48043 50.7071 9.29289C50.5196 9.10536 50.2652 9 50 9C49.7348 9 49.4804 9.10536 49.2929 9.29289C49.1054 9.48043 49 9.73478 49 10H47.351L42.625 6.219C42.4476 6.07713 42.2272 5.99989 42 6H35V5C35 4.20435 34.6839 3.44129 34.1213 2.87868C33.5587 2.31607 32.7956 2 32 2C31.2044 2 30.4413 2.31607 29.8787 2.87868C29.3161 3.44129 29 4.20435 29 5V6H22C21.7728 5.99989 21.5524 6.07713 21.375 6.219L16.649 10H15C15 9.73478 14.8946 9.48043 14.7071 9.29289C14.5196 9.10536 14.2652 9 14 9C13.7348 9 13.4804 9.10536 13.2929 9.29289C13.1054 9.48043 13 9.73478 13 10H12C11.2044 10 10.4413 10.3161 9.87868 10.8787C9.31607 11.4413 9 12.2044 9 13C9 13.7956 9.31607 14.5587 9.87868 15.1213C10.4413 15.6839 11.2044 16 12 16H13V18.5L2.4 26.45C2.2758 26.5431 2.175 26.6639 2.10557 26.8028C2.03614 26.9416 2 27.0948 2 27.25V41C2 41.2652 2.10536 41.5196 2.29289 41.7071C2.48043 41.8946 2.73478 42 3 42H4C4.00159 43.5908 4.63424 45.116 5.75911 46.2409C6.88399 47.3658 8.40919 47.9984 10 48H18C19.5908 47.9984 21.116 47.3658 22.2409 46.2409C23.3658 45.116 23.9984 43.5908 24 42H25C25.2652 42 25.5196 41.8946 25.7071 41.7071C25.8946 41.5196 26 41.2652 26 41V27.25C26 27.0948 25.9639 26.9416 25.8944 26.8028C25.825 26.6639 25.7242 26.5431 25.6 26.45L15 18.5V12H17C17.2272 12.0001 17.4476 11.9229 17.625 11.781L22.351 8H41.651L46.377 11.781C46.5539 11.9224 46.7735 11.9997 47 12H49V18.5L38.4 26.45C38.2758 26.5431 38.175 26.6639 38.1056 26.8028C38.0361 26.9416 38 27.0948 38 27.25V41C38 41.2652 38.1054 41.5196 38.2929 41.7071C38.4804 41.8946 38.7348 42 39 42H40C40.0016 43.5908 40.6342 45.116 41.7591 46.2409C42.884 47.3658 44.4092 47.9984 46 48H54C55.5908 47.9984 57.116 47.3658 58.2409 46.2409C59.3658 45.116 59.9984 43.5908 60 42H61C61.2652 42 61.5196 41.8946 61.7071 41.7071C61.8946 41.5196 62 41.2652 62 41V27.25C62 27.0948 61.9639 26.9416 61.8944 26.8028C61.825 26.6639 61.7242 26.5431 61.6 26.45ZM18 46H10C8.93913 46 7.92172 45.5786 7.17157 44.8284C6.42143 44.0783 6 43.0609 6 42H22C22 43.0609 21.5786 44.0783 20.8284 44.8284C20.0783 45.5786 19.0609 46 18 46ZM24 40H4V27.75L14 20.25L24 27.75V40ZM13 14H12C11.7348 14 11.4804 13.8946 11.2929 13.7071C11.1054 13.5196 11 13.2652 11 13C11 12.7348 11.1054 12.4804 11.2929 12.2929C11.4804 12.1054 11.7348 12 12 12H13V14ZM31 5C31 4.73478 31.1054 4.48043 31.2929 4.29289C31.4804 4.10536 31.7348 4 32 4C32.2652 4 32.5196 4.10536 32.7071 4.29289C32.8946 4.48043 33 4.73478 33 5V6H31V5ZM52 12C52.2652 12 52.5196 12.1054 52.7071 12.2929C52.8946 12.4804 53 12.7348 53 13C53 13.2652 52.8946 13.5196 52.7071 13.7071C52.5196 13.8946 52.2652 14 52 14H51V12H52ZM54 46H46C44.9391 46 43.9217 45.5786 43.1716 44.8284C42.4214 44.0783 42 43.0609 42 42H58C58 43.0609 57.5786 44.0783 56.8284 44.8284C56.0783 45.5786 55.0609 46 54 46ZM60 40H40V27.75L50 20.25L60 27.75V40Z" fill="black"/>
<path d="M57 50H37.736C37.0391 49.0051 36.0965 48.2076 35 47.685V25C35 24.7348 34.8946 24.4804 34.7071 24.2929C34.5196 24.1054 34.2652 24 34 24C33.7348 24 33.4804 24.1054 33.2929 24.2929C33.1054 24.4804 33 24.7348 33 25V47.08C32.3376 46.9733 31.6624 46.9733 31 47.08V22H37C37.7956 22 38.5587 21.6839 39.1213 21.1213C39.6839 20.5587 40 19.7956 40 19V14H41.7L44.448 15.832C44.6117 15.9407 44.8035 15.9991 45 16H46C46.2652 16 46.5196 15.8946 46.7071 15.7071C46.8946 15.5196 47 15.2652 47 15C47 14.7348 46.8946 14.4804 46.7071 14.2929C46.5196 14.1054 46.2652 14 46 14H45.3L42.552 12.168C42.3883 12.0593 42.1965 12.0009 42 12H22C21.8025 12.0003 21.6095 12.0587 21.445 12.168L18.7 14H18C17.7348 14 17.4804 14.1054 17.2929 14.2929C17.1054 14.4804 17 14.7348 17 15C17 15.2652 17.1054 15.5196 17.2929 15.7071C17.4804 15.8946 17.7348 16 18 16H19C19.1975 15.9997 19.3905 15.9413 19.555 15.832L22.3 14H24V19C24 19.7956 24.3161 20.5587 24.8787 21.1213C25.4413 21.6839 26.2044 22 27 22H29V47.685C27.4898 48.3983 26.2857 49.6299 25.6067 51.1558C24.9277 52.6817 24.8189 54.4006 25.3 56H8V52H22.809C23.0742 52 23.3286 51.8946 23.5161 51.7071C23.7036 51.5196 23.809 51.2652 23.809 51C23.809 50.7348 23.7036 50.4804 23.5161 50.2929C23.3286 50.1054 23.0742 50 22.809 50H7C6.73478 50 6.48043 50.1054 6.29289 50.2929C6.10536 50.4804 6 50.7348 6 51V57C6 57.2652 6.10536 57.5196 6.29289 57.7071C6.48043 57.8946 6.73478 58 7 58H9V59C9 59.7956 9.31607 60.5587 9.87868 61.1213C10.4413 61.6839 11.2044 62 12 62C12.7956 62 13.5587 61.6839 14.1213 61.1213C14.6839 60.5587 15 59.7956 15 59V58H26.264C27.2135 59.3668 28.6193 60.3501 30.2288 60.7733C31.8383 61.1966 33.5459 61.0319 35.0449 60.309C36.5439 59.5861 37.7359 58.3523 38.4068 56.8293C39.0777 55.3063 39.1834 53.594 38.705 52H56V56H41.19C40.9248 56 40.6704 56.1054 40.4829 56.2929C40.2954 56.4804 40.19 56.7348 40.19 57C40.19 57.2652 40.2954 57.5196 40.4829 57.7071C40.6704 57.8946 40.9248 58 41.19 58H49V59C49 59.7956 49.3161 60.5587 49.8787 61.1213C50.4413 61.6839 51.2044 62 52 62C52.7956 62 53.5587 61.6839 54.1213 61.1213C54.6839 60.5587 55 59.7956 55 59V58H57C57.2652 58 57.5196 57.8946 57.7071 57.7071C57.8946 57.5196 58 57.2652 58 57V51C58 50.7348 57.8946 50.4804 57.7071 50.2929C57.5196 50.1054 57.2652 50 57 50ZM31 19C31 18.8022 31.0586 18.6089 31.1685 18.4444C31.2784 18.28 31.4346 18.1518 31.6173 18.0761C31.8 18.0004 32.0011 17.9806 32.1951 18.0192C32.3891 18.0578 32.5673 18.153 32.7071 18.2929C32.847 18.4327 32.9422 18.6109 32.9808 18.8049C33.0194 18.9989 32.9996 19.2 32.9239 19.3827C32.8482 19.5654 32.72 19.7216 32.5556 19.8315C32.3911 19.9414 32.1978 20 32 20C31.7348 20 31.4804 19.8946 31.2929 19.7071C31.1054 19.5196 31 19.2652 31 19ZM31 16V14H33V16H31ZM38 19C38 19.2652 37.8946 19.5196 37.7071 19.7071C37.5196 19.8946 37.2652 20 37 20H34.816C35.0614 19.3559 35.0614 18.6441 34.816 18H38V19ZM38 16H35V14H38V16ZM29 14V16H26V14H29ZM26 19V18H29.184C28.9386 18.6441 28.9386 19.3559 29.184 20H27C26.7348 20 26.4804 19.8946 26.2929 19.7071C26.1054 19.5196 26 19.2652 26 19ZM13 59C13 59.2652 12.8946 59.5196 12.7071 59.7071C12.5196 59.8946 12.2652 60 12 60C11.7348 60 11.4804 59.8946 11.2929 59.7071C11.1054 59.5196 11 59.2652 11 59V58H13V59ZM32 59C31.0111 59 30.0444 58.7068 29.2221 58.1573C28.3999 57.6079 27.759 56.827 27.3806 55.9134C27.0022 54.9998 26.9031 53.9945 27.0961 53.0245C27.289 52.0546 27.7652 51.1637 28.4645 50.4645C29.1637 49.7652 30.0546 49.289 31.0245 49.0961C31.9945 48.9031 32.9998 49.0022 33.9134 49.3806C34.827 49.759 35.6079 50.3999 36.1573 51.2221C36.7068 52.0444 37 53.0111 37 54C36.9984 55.3256 36.4711 56.5964 35.5338 57.5338C34.5964 58.4711 33.3256 58.9984 32 59ZM53 59C53 59.2652 52.8946 59.5196 52.7071 59.7071C52.5196 59.8946 52.2652 60 52 60C51.7348 60 51.4804 59.8946 51.2929 59.7071C51.1054 59.5196 51 59.2652 51 59V58H53V59Z" fill="black"/>
</svg>
